<?xml version="1.0" encoding="utf-8"?>
<!-- Generator: Adobe Illustrator 16.0.0, SVG Export Plug-In . SVG Version: 6.00 Build 0)  -->
<!DOCTYPE svg PUBLIC "-//W3C//DTD SVG 1.1//EN" "http://www.w3.org/Graphics/SVG/1.1/DTD/svg11.dtd">
<svg version="1.1" id="Layer_1" xmlns="http://www.w3.org/2000/svg" xmlns:xlink="http://www.w3.org/1999/xlink" x="0px" y="0px"
	 width="320.173px" height="188px" viewBox="0 0 320.173 188" enable-background="new 0 0 320.173 188" xml:space="preserve">
<text transform="matrix(1 0 0 1 64.458 28.7598)"><tspan x="0" y="0" fill="#B70000" font-family="'Verdana'" font-size="27.2969">El</tspan><tspan x="24.751" y="0" fill="#000BD3" font-family="'Verdana'" font-size="27.2969">Chem</tspan></text>
<text transform="matrix(1 0 0 1 64.458 52.2637)" fill="#E28B00" font-family="'Verdana'" font-size="30.0974">Routes</text>
<text transform="matrix(1 0 0 1 171.4697 52.6279)" fill="#8E8E8E" font-family="'Verdana'" font-size="56.3562">2018</text>
<g>
	<rect x="15.49" y="28.193" fill="#CC0000" width="31.491" height="6.826"/>
	<rect x="27.823" y="15.86" fill="#0202CE" width="6.825" height="11.267"/>
	<rect x="27.823" y="36.226" fill="#0202CE" width="6.825" height="11.125"/>
	<path fill="none" stroke="#067203" stroke-width="4.5495" stroke-miterlimit="10" d="M31.235,8.647
		c-12.681,0-22.96,10.278-22.96,22.96c0,12.68,10.28,22.961,22.96,22.961"/>
	<path fill="none" stroke="#F9AC3D" stroke-width="4.5495" stroke-miterlimit="10" d="M55.049,31.607
		c0-12.682-10.28-22.96-22.96-22.96"/>
	
		<line fill="none" stroke="#F9AC3D" stroke-width="4.5495" stroke-miterlimit="10" x1="38.77" y1="39.071" x2="54.657" y2="54.959"/>
</g>
<text transform="matrix(1 0 0 1 64.458 152.7598)"><tspan x="0" y="0" fill="#E58C8C" font-family="'Verdana'" font-size="27.2969">El</tspan><tspan x="24.751" y="0" fill="#8C93D1" font-family="'Verdana'" font-size="27.2969">Chem</tspan></text>
<text transform="matrix(1 0 0 1 64.458 176.2637)" fill="#EACB9D" font-family="'Verdana'" font-size="30.0974">Routes</text>
<text transform="matrix(1 0 0 1 171.4697 176.6279)" fill="#DBDBDB" font-family="'Verdana'" font-size="56.3562">2018</text>
<g>
	<rect x="15.49" y="152.193" fill="#E58C8C" width="31.491" height="6.826"/>
	<rect x="27.823" y="139.859" fill="#8C93D1" width="6.825" height="11.268"/>
	<rect x="27.823" y="160.226" fill="#8C93D1" width="6.825" height="11.125"/>
	<path fill="none" stroke="#AFD8AD" stroke-width="4.5495" stroke-miterlimit="10" d="M31.235,132.646
		c-12.681,0-22.96,10.279-22.96,22.961c0,12.68,10.28,22.961,22.96,22.961"/>
	<path fill="none" stroke="#EACB9D" stroke-width="4" stroke-miterlimit="10" d="M55.049,155.607
		c0-12.682-10.28-22.961-22.96-22.961"/>
	<line fill="none" stroke="#EACB9D" stroke-width="4" stroke-miterlimit="10" x1="38.77" y1="163.071" x2="54.657" y2="178.959"/>
</g>
<text transform="matrix(1 0 0 1 64.458 91.7598)"><tspan x="0" y="0" fill="#373737" font-family="'Verdana'" font-size="27.2969">El</tspan><tspan x="24.751" y="0" fill="#1E1E1E" font-family="'Verdana'" font-size="27.2969">Chem</tspan></text>
<text transform="matrix(1 0 0 1 64.458 115.2637)" fill="#969696" font-family="'Verdana'" font-size="30.0974">Routes</text>
<text transform="matrix(1 0 0 1 171.4697 115.6279)" fill="#8E8E8E" font-family="'Verdana'" font-size="56.3562">2018</text>
<g>
	<rect x="15.49" y="91.193" fill="#3D3D3D" width="31.491" height="6.826"/>
	<rect x="27.823" y="78.86" fill="#181818" width="6.825" height="11.267"/>
	<rect x="27.823" y="99.226" fill="#181818" width="6.825" height="11.125"/>
	<path fill="none" stroke="#454545" stroke-width="4.5495" stroke-miterlimit="10" d="M31.235,71.647
		c-12.681,0-22.96,10.278-22.96,22.96c0,12.68,10.28,22.961,22.96,22.961"/>
	<path fill="none" stroke="#B7B7B7" stroke-width="4.5495" stroke-miterlimit="10" d="M55.049,94.607
		c0-12.682-10.28-22.96-22.96-22.96"/>
	
		<line fill="none" stroke="#B7B7B7" stroke-width="4.5495" stroke-miterlimit="10" x1="38.77" y1="102.071" x2="54.657" y2="117.959"/>
</g>
</svg>
